<svg width="962" height="91" viewBox="0 0 962 91" fill="none" xmlns="http://www.w3.org/2000/svg">
<path d="M502.116 41.2851H461.831C453.29 41.2851 446.361 34.3581 446.361 25.8203C446.361 17.2831 453.29 10.3562 461.831 10.3562H521.937V0.852038H461.831C447.973 0.852038 436.854 12.1276 436.854 25.8197C436.854 39.5118 448.134 50.788 461.831 50.788L502.116 50.7887C510.335 50.7887 517.102 57.5543 517.102 65.769C517.102 73.9848 510.334 80.75 502.116 80.75H437.981V90.2535L502.116 90.2541C515.652 90.2541 526.61 79.3004 526.61 65.7684C526.61 52.2376 515.653 41.2839 502.116 41.2839V41.2851ZM811.99 0.691379H763.487V90.2547H811.99C836.645 90.2547 856.787 70.1188 856.787 45.4731C856.787 20.8261 836.645 0.690796 811.99 0.690796V0.691379ZM811.99 80.9124H772.833V10.0343H811.99C831.488 10.0343 847.441 25.9816 847.441 45.4731C847.441 64.9639 831.488 80.9124 811.99 80.9124ZM377.714 0.691379H329.211V90.2547H377.714C402.369 90.2547 422.512 70.1188 422.512 45.4731C422.512 20.8261 402.369 0.690796 377.714 0.690796V0.691379ZM377.714 80.9124H338.557V10.0343H377.714C397.213 10.0343 413.165 25.9816 413.165 45.4731C413.165 64.9639 397.213 80.9124 377.714 80.9124ZM699.997 0.691379C674.536 0.691379 653.75 21.4717 653.75 46.9232V90.416H663.418V46.9232C663.418 26.7873 679.854 10.3568 699.997 10.3568C720.139 10.3568 736.575 26.7879 736.575 46.9232V90.416H746.245V46.9232C746.245 21.4717 725.457 0.691379 699.997 0.691379ZM590.26 0.691379C564.8 0.691379 544.012 21.4717 544.012 46.9232V90.416H553.681V50.3054H626.838V90.416H636.507V46.9232C636.507 21.4717 615.719 0.691379 590.259 0.691379H590.26ZM590.26 10.3568C608.308 10.3568 623.294 23.4045 626.195 40.6407L554.326 40.64C557.226 23.4038 572.212 10.3568 590.26 10.3568H590.26ZM156.629 0.691379C131.169 0.691379 110.382 21.4717 110.382 46.9232V90.416H120.05V50.3054H193.208V90.416H202.877V46.9232C202.877 21.4717 182.089 0.691379 156.628 0.691379H156.629ZM156.629 10.3568C174.677 10.3568 189.664 23.4045 192.564 40.6407L120.534 40.64C123.595 23.4038 138.582 10.3568 156.629 10.3568ZM82.9878 45.4737C74.4477 34.5194 61.2337 27.4312 46.2482 27.4312C31.4228 27.4312 18.2088 34.5188 9.66871 45.4737V0.691379H0V90.2547H9.66871V73.6629C9.66871 53.5264 26.1054 37.0966 46.2476 37.0966C66.3904 37.0966 82.8265 53.527 82.8265 73.6629V90.2547H92.4952V73.6629C92.6571 63.0312 88.9505 53.2046 82.9885 45.4731H92.6571V0.690796H82.9885V45.4731L82.9878 45.4737ZM286.509 51.755C300.529 51.755 312.13 40.3181 312.13 26.1423C312.13 11.9664 300.528 0.691379 286.509 0.691379H220.28V10.3568H286.509C295.211 10.3568 302.462 17.4444 302.462 26.3041C302.462 35.1638 295.371 42.2514 286.509 42.2514L220.28 42.2509V90.4154H229.949V51.7544H283.286L276.679 58.3595L308.424 90.0935H322.121L283.608 51.7544H286.509V51.755ZM936.713 41.2851H896.428C887.888 41.2851 880.959 34.3581 880.959 25.8203C880.959 17.2831 887.888 10.3562 896.428 10.3562H956.534V0.852038H896.428C882.57 0.852038 871.452 12.1276 871.452 25.8197C871.452 39.5118 882.732 50.788 896.428 50.788L936.713 50.7887C944.932 50.7887 951.699 57.5543 951.699 65.769C951.699 73.9848 944.931 80.75 936.713 80.75H872.58V90.2535L936.713 90.2541C950.249 90.2541 961.207 79.3004 961.207 65.7684C961.207 52.2376 950.25 41.2839 936.713 41.2839V41.2851Z" fill="#DF9F71"/>
</svg>
